<svg width="450" height="84" viewBox="0 0 450 84" fill="none" xmlns="http://www.w3.org/2000/svg">
<path d="M5.20117 82.8291C4.59896 83.2686 3.90723 83.4883 3.12598 83.4883C2.361 83.4883 1.74251 83.293 1.27051 82.9023C0.814779 82.4954 0.586914 82.0316 0.586914 81.5107C0.586914 80.9899 0.668294 80.6074 0.831055 80.3633C1.30306 80.64 2.04362 80.7783 3.05273 80.7783C4.07812 80.7783 4.92448 80.0866 5.5918 78.7031V66.9844C5.5918 66.2194 5.42904 65.6497 5.10352 65.2754C4.61523 64.6895 3.78516 64.1117 2.61328 63.542C3.80143 62.9723 4.55013 62.5003 4.85938 62.126C5.34766 61.5075 5.5918 60.8158 5.5918 60.0508V49.748C5.03841 48.4948 4.03743 47.8682 2.58887 47.8682C2.03548 47.8682 1.57975 48.0065 1.22168 48.2832C1.04264 48.0391 0.953125 47.7542 0.953125 47.4287C0.953125 47.1032 1.03451 46.8021 1.19727 46.5254C1.36003 46.2487 1.57161 46.0046 1.83203 45.793C2.40169 45.3698 3.16667 45.1582 4.12695 45.1582C5.10352 45.1582 5.93359 45.4268 6.61719 45.9639C7.07292 45.4268 7.69954 45.1582 8.49707 45.1582C9.2946 45.1582 9.9375 45.4349 10.4258 45.9883C10.8978 45.4349 11.3779 45.1582 11.8662 45.1582C12.3708 45.1582 12.7451 45.207 12.9893 45.3047C13.2497 45.4023 13.4694 45.5326 13.6484 45.6953C13.9089 45.9069 14.2018 46.3219 14.5273 46.9404L29.6641 74.2109V66.7646C29.6641 66.0485 29.5094 65.5195 29.2002 65.1777C28.7282 64.6732 27.89 64.1279 26.6855 63.542C27.8086 62.9886 28.5329 62.541 28.8584 62.1992C29.3955 61.6296 29.6641 60.9948 29.6641 60.2949V50.0654C29.2897 49.3818 28.8258 48.8447 28.2725 48.4541C27.7354 48.0635 27.1169 47.8682 26.417 47.8682C25.7334 47.8682 25.1556 48.0065 24.6836 48.2832C24.5046 47.9902 24.415 47.5915 24.415 47.0869C24.415 46.5661 24.6673 46.1185 25.1719 45.7441C25.6764 45.3535 26.3356 45.1582 27.1494 45.1582C27.9632 45.1582 28.6875 45.3698 29.3223 45.793C29.8919 45.3698 30.543 45.1582 31.2754 45.1582C32.0241 45.1582 32.6833 45.3779 33.2529 45.8174C33.8877 45.3779 34.5876 45.1582 35.3525 45.1582C36.1175 45.1582 36.7279 45.3617 37.1836 45.7686C37.6556 46.1592 37.8916 46.6149 37.8916 47.1357C37.8916 47.6566 37.8102 48.0391 37.6475 48.2832C37.1755 48.0065 36.4186 47.8682 35.377 47.8682C34.3353 47.8682 33.5052 48.568 32.8867 49.9678V60.2949C32.8867 60.9948 33.0332 61.5075 33.3262 61.833C33.8145 62.3701 34.6608 62.9398 35.8652 63.542C34.5469 64.2581 33.7575 64.7546 33.4971 65.0312C33.0902 65.4707 32.8867 66.0485 32.8867 66.7646L33.3262 79.167C33.9121 80.2412 34.8317 80.7783 36.085 80.7783C36.6383 80.7783 37.0941 80.64 37.4521 80.3633C37.6312 80.6074 37.7207 80.8923 37.7207 81.2178C37.7207 81.5433 37.6393 81.8444 37.4766 82.1211C37.3138 82.3978 37.1022 82.6419 36.8418 82.8535C36.2721 83.2767 35.5804 83.4883 34.7666 83.4883C33.9528 83.4883 33.2204 83.3255 32.5693 83C31.2835 83.7324 29.9733 83.6755 28.6387 82.8291C28.1178 83.2686 27.6214 83.4883 27.1494 83.4883C26.6774 83.4883 26.3275 83.4476 26.0996 83.3662C25.8717 83.2848 25.6602 83.1383 25.4648 82.9268C25.1556 82.6175 24.6755 81.8444 24.0244 80.6074L9.00977 54.7285V78.7031C9.67708 80.0866 10.5234 80.7783 11.5488 80.7783C12.5742 80.7783 13.3229 80.64 13.7949 80.3633C13.974 80.6562 14.0635 81.0632 14.0635 81.584C14.0635 82.0885 13.8112 82.5361 13.3066 82.9268C12.8021 83.3011 12.151 83.4883 11.3535 83.4883C10.556 83.4883 9.82357 83.2848 9.15625 82.8779C8.57031 83.2848 7.89486 83.4883 7.12988 83.4883C6.38118 83.4883 5.73828 83.2686 5.20117 82.8291ZM24.293 76.5303C24.4069 76.3838 24.4639 76.1559 24.4639 75.8467C24.4639 75.5212 24.415 75.1631 24.3174 74.7725C24.236 74.3656 24.1139 73.9342 23.9512 73.4785C23.6094 72.5671 23.1618 71.5905 22.6084 70.5488L12.2568 52.4824C12.1429 52.6615 12.0859 52.987 12.0859 53.459C12.0859 54.4681 12.7777 56.234 14.1611 58.7568L24.293 76.5303Z" fill="black"/>
<path d="M64.5762 83.4883C62.2812 83.4883 61.0443 81.9014 60.8652 78.7275C60.0352 80.2249 58.9121 81.4131 57.4961 82.292C56.0964 83.1709 54.5827 83.6104 52.9551 83.6104C51.3438 83.6104 50.0335 83.3906 49.0244 82.9512C48.0153 82.5117 47.1771 81.877 46.5098 81.0469C45.2077 79.4193 44.5566 77.1081 44.5566 74.1133V72.5996C44.5566 70.7116 43.5638 69.3118 41.5781 68.4004C42.75 67.8307 43.4987 67.3506 43.8242 66.96C44.3125 66.3577 44.5566 65.6823 44.5566 64.9336V61.6377C44.5566 60.2542 44.0846 59.5055 43.1406 59.3916C42.8639 59.359 42.514 59.3428 42.0908 59.3428C41.6676 59.3428 41.277 59.4811 40.9189 59.7578C40.6911 59.4486 40.5771 59.1312 40.5771 58.8057C40.5771 58.4639 40.6585 58.0895 40.8213 57.6826C41.0003 57.2594 41.2689 56.8607 41.627 56.4863C42.4733 55.6074 43.458 55.168 44.5811 55.168C45.7041 55.168 46.762 55.3551 47.7549 55.7295C48.471 54.7041 49.3174 54.1914 50.2939 54.1914C51.9704 54.1914 52.8086 55.0703 52.8086 56.8281V72.7217C52.8086 75.8141 53.5247 77.6696 54.957 78.2881C55.4128 78.4834 55.9173 78.5811 56.4707 78.5811C57.0404 78.5811 57.5531 78.4671 58.0088 78.2393C58.4645 77.9951 58.8633 77.6696 59.2051 77.2627C59.8398 76.4652 60.2467 75.3747 60.4258 73.9912V61.6377C60.4258 59.7822 59.6689 58.8545 58.1553 58.8545C57.6019 58.8545 57.1462 58.9928 56.7881 59.2695C56.5602 58.9603 56.4463 58.6429 56.4463 58.3174C56.4463 57.9756 56.5277 57.6257 56.6904 57.2676C56.8695 56.8932 57.138 56.5514 57.4961 56.2422C58.2936 55.526 59.262 55.168 60.4014 55.168C61.557 55.168 62.6312 55.3551 63.624 55.7295C64.3402 54.7041 65.1865 54.1914 66.1631 54.1914C67.8395 54.1914 68.6777 55.0703 68.6777 56.8281V64.9336C68.6777 65.6823 68.8242 66.2357 69.1172 66.5938C69.638 67.2285 70.4844 67.8307 71.6562 68.4004C69.6706 69.3118 68.6777 70.7116 68.6777 72.5996V78.8984C68.987 80.1517 69.6624 80.7783 70.7041 80.7783C71.2575 80.7783 71.7132 80.64 72.0713 80.3633C72.2992 80.6725 72.4131 81.0632 72.4131 81.5352C72.4131 81.9909 72.1771 82.4303 71.7051 82.8535C71.2493 83.2767 70.5251 83.4883 69.5322 83.4883C68.5557 83.4883 67.6279 83.2279 66.749 82.707C66.098 83.2279 65.3737 83.4883 64.5762 83.4883ZM62.7451 76.5303C63.6891 76.1559 64.1855 74.3574 64.2344 71.1348C64.2344 70.4512 64.2344 69.6699 64.2344 68.791C64.2344 67.9121 64.2262 67.1634 64.21 66.5449C64.21 65.9102 64.2018 65.3079 64.1855 64.7383C64.1204 62.6875 63.9333 61.4668 63.624 61.0762C63.3148 60.6693 63.0218 60.4007 62.7451 60.2705V76.5303ZM48.1455 68.4004L48.2188 65.1777C48.2188 63.7292 48.1699 62.7689 48.0723 62.2969C47.7956 61.0599 47.4049 60.3844 46.9004 60.2705V61.8574C46.9004 64.6081 46.8353 66.2275 46.7051 66.7158C46.5911 67.1878 46.3958 67.5459 46.1191 67.79C45.8587 68.0179 45.4681 68.2214 44.9473 68.4004C45.9238 68.7422 46.4772 69.1572 46.6074 69.6455C46.8027 70.4268 46.9004 72.1927 46.9004 74.9434V76.5303C47.3887 76.4163 47.7874 75.6921 48.0967 74.3574C48.1781 73.9831 48.2188 73.0716 48.2188 71.623L48.1455 68.4004Z" fill="black"/>
<path d="M80.4453 82.707C79.6966 83.2279 78.8421 83.4883 77.8818 83.4883C76.9215 83.4883 76.2217 83.2686 75.7822 82.8291C75.359 82.3734 75.1475 81.9421 75.1475 81.5352C75.1475 80.998 75.237 80.6074 75.416 80.3633C75.7741 80.64 76.2298 80.7783 76.7832 80.7783C77.8249 80.7783 78.5003 80.2738 78.8096 79.2646V71.6475C78.8096 70.9313 78.6549 70.4105 78.3457 70.085C77.9062 69.5804 77.068 69.027 75.8311 68.4248C76.9704 67.904 77.6947 67.4889 78.0039 67.1797C78.541 66.6426 78.8096 65.9834 78.8096 65.2021V61.6377C78.8096 60.2542 78.3376 59.5055 77.3936 59.3916C77.1169 59.359 76.7669 59.3428 76.3438 59.3428C75.9206 59.3428 75.5299 59.4811 75.1719 59.7578C74.944 59.4486 74.8301 59.1312 74.8301 58.8057C74.8301 58.4639 74.9115 58.0895 75.0742 57.6826C75.2533 57.2594 75.5137 56.8607 75.8555 56.4863C76.7181 55.6074 77.7109 55.168 78.834 55.168C79.9733 55.168 80.9173 55.347 81.666 55.7051C82.5612 54.696 83.5215 54.1914 84.5469 54.1914C86.2233 54.1914 87.0615 55.0703 87.0615 56.8281L87.0371 58.8545C88.4043 56.6735 90.3086 55.2331 92.75 54.5332C93.5475 54.3053 94.3695 54.1914 95.2158 54.1914C97.1364 54.1914 98.7314 54.6553 100.001 55.583C101.271 56.5107 102.182 57.8291 102.735 59.5381C103.956 57.0153 105.934 55.3633 108.668 54.582C109.563 54.3216 110.572 54.1914 111.695 54.1914C112.835 54.1914 113.901 54.4111 114.894 54.8506C115.903 55.2738 116.757 55.8841 117.457 56.6816C118.873 58.3418 119.581 60.6367 119.581 63.5664L119.508 65.2021C119.508 65.9834 119.679 66.5449 120.021 66.8867C120.525 67.3913 121.347 67.904 122.486 68.4248C121.249 69.027 120.484 69.4909 120.191 69.8164C119.736 70.321 119.508 70.9313 119.508 71.6475V79.2646C119.817 80.2738 120.493 80.7783 121.534 80.7783C121.925 80.7783 122.299 80.64 122.657 80.3633C122.755 80.4935 122.861 80.6237 122.975 80.7539C123.105 80.8678 123.17 81.1283 123.17 81.5352C123.17 81.9421 122.95 82.3734 122.511 82.8291C122.088 83.2686 121.404 83.4883 120.46 83.4883C119.532 83.4883 118.67 83.2279 117.872 82.707C117.14 83.2279 116.318 83.4883 115.406 83.4883C114.511 83.4883 113.722 83.2441 113.038 82.7559C112.403 83.2441 111.687 83.4883 110.89 83.4883C110.108 83.4883 109.482 83.2848 109.01 82.8779C108.538 82.471 108.302 81.8851 108.302 81.1201C108.302 80.762 108.424 80.4772 108.668 80.2656C109.042 80.5586 109.417 80.7051 109.791 80.7051C110.507 80.7051 111.02 80.3063 111.329 79.5088V64.958C111.329 61.1331 109.938 59.2207 107.154 59.2207C106.357 59.2207 105.576 59.6846 104.811 60.6123C104.046 61.5238 103.549 62.6305 103.321 63.9326L103.248 79.5088C103.557 80.3063 104.07 80.7051 104.786 80.7051C105.16 80.7051 105.535 80.5586 105.909 80.2656C106.153 80.4772 106.275 80.8678 106.275 81.4375C106.275 81.9909 106.039 82.471 105.567 82.8779C105.095 83.2848 104.461 83.4883 103.663 83.4883C102.866 83.4883 102.149 83.2441 101.515 82.7559C100.815 83.2441 100.017 83.4883 99.1221 83.4883C98.2432 83.4883 97.4619 83.2441 96.7783 82.7559C96.1436 83.2441 95.4274 83.4883 94.6299 83.4883C93.8486 83.4883 93.222 83.2848 92.75 82.8779C92.278 82.471 92.042 81.8851 92.042 81.1201C92.042 80.762 92.1641 80.4772 92.4082 80.2656C92.7826 80.5586 93.1569 80.7051 93.5312 80.7051C94.2474 80.7051 94.7601 80.3063 95.0693 79.5088V64.958C95.0693 61.9144 94.3288 60.0996 92.8477 59.5137C92.3757 59.3184 91.8548 59.2207 91.2852 59.2207C90.1947 59.2207 89.2507 59.6927 88.4531 60.6367C87.7044 61.5156 87.2324 62.6224 87.0371 63.957L86.9883 79.5088C87.2975 80.3063 87.8102 80.7051 88.5264 80.7051C88.9007 80.7051 89.2751 80.5586 89.6494 80.2656C89.9424 80.5098 90.0889 80.9085 90.0889 81.4619C90.0889 81.999 89.8366 82.471 89.332 82.8779C88.8438 83.2848 88.1927 83.4883 87.3789 83.4883C86.5814 83.4883 85.8734 83.2523 85.2549 82.7803C84.6038 83.2523 83.8307 83.4883 82.9355 83.4883C82.0404 83.4883 81.2103 83.2279 80.4453 82.707ZM112.94 60.2705C113.429 61.4587 113.673 63.778 113.673 67.2285V76.5303C114.487 76.221 114.934 75.1549 115.016 73.332C115.113 71.5091 115.162 69.8978 115.162 68.498C115.162 67.082 115.121 65.902 115.04 64.958C114.959 64.014 114.828 63.2246 114.649 62.5898C114.324 61.4505 113.754 60.6774 112.94 60.2705ZM96.6807 60.2705C97.1689 61.4587 97.4131 63.778 97.4131 67.2285V76.5303C98.2269 76.221 98.6745 75.1549 98.7559 73.332C98.8535 71.5091 98.9023 69.8978 98.9023 68.498C98.9023 67.082 98.8617 65.902 98.7803 64.958C98.6989 64.014 98.5687 63.2246 98.3896 62.5898C98.0641 61.4505 97.4945 60.6774 96.6807 60.2705ZM81.1533 76.5303C81.9183 76.042 82.3496 75.0247 82.4473 73.4785C82.5124 72.3066 82.5449 71.2568 82.5449 70.3291V67.2285C82.5449 64.8197 82.4798 63.2734 82.3496 62.5898C82.1217 61.418 81.723 60.6449 81.1533 60.2705V61.8574C81.1533 64.6081 81.0882 66.2275 80.958 66.7158C80.8441 67.1878 80.6488 67.5459 80.3721 67.79C80.1117 68.0342 79.721 68.2458 79.2002 68.4248C80.1768 68.7666 80.7301 69.1735 80.8604 69.6455C81.0557 70.4268 81.1533 72.1927 81.1533 74.9434V76.5303Z" fill="black"/>
<path d="M136.231 81.291C134.457 82.7559 132.651 83.4883 130.812 83.4883C129.168 83.4883 128.159 83.2767 127.784 82.8535C128.142 82.4141 128.338 81.7549 128.37 80.876C128.403 79.9971 128.419 79.1751 128.419 78.4102V71.623C128.419 70.9069 128.264 70.3861 127.955 70.0605C127.516 69.556 126.677 69.0026 125.44 68.4004C126.58 67.8796 127.304 67.4645 127.613 67.1553C128.15 66.6182 128.419 65.9671 128.419 65.2021V51.3838C128.419 49.5283 127.662 48.6006 126.148 48.6006C125.595 48.6006 125.139 48.7389 124.781 49.0156C124.553 48.7064 124.439 48.389 124.439 48.0635C124.439 47.7217 124.521 47.3962 124.684 47.0869C124.863 46.7777 125.123 46.4928 125.465 46.2324C126.246 45.679 127.223 45.4023 128.395 45.4023C129.566 45.4023 130.486 45.4756 131.153 45.6221C132.13 44.499 133.131 43.9375 134.156 43.9375C135.833 43.9375 136.671 44.8164 136.671 46.5742V57.0234C137.924 55.7702 139.601 54.8994 141.7 54.4111C142.335 54.2646 143.157 54.1914 144.166 54.1914C145.175 54.1914 146.233 54.3379 147.34 54.6309C148.447 54.9238 149.407 55.4447 150.221 56.1934C151.848 57.6908 152.849 60.36 153.224 64.2012C153.386 66.2031 154.379 67.6191 156.202 68.4492C155.047 69.0189 154.314 69.499 154.005 69.8896C153.582 70.443 153.321 71.1022 153.224 71.8672C152.752 75.7897 151.743 78.6868 150.196 80.5586C148.504 82.5931 146.054 83.6104 142.848 83.6104C141.204 83.6104 139.511 83.1628 137.77 82.2676C137.2 81.9909 136.687 81.6654 136.231 81.291ZM134.327 52.4824C133.66 52.7917 133.253 53.3776 133.106 54.2402C132.927 55.3145 132.838 57.0885 132.838 59.5625V64.1035C132.854 64.9824 132.87 66.1787 132.887 67.6924C132.903 69.1898 132.919 70.3454 132.936 71.1592C132.968 72.917 133.017 74.0319 133.082 74.5039C133.147 74.9759 133.294 75.4072 133.521 75.7979C133.766 76.1722 134.034 76.4163 134.327 76.5303V52.4824ZM136.671 75.2607C136.671 76.5791 137.118 77.7103 138.014 78.6543C138.86 79.582 139.82 80.0459 140.895 80.0459C143.613 80.0459 144.972 78.0928 144.972 74.1865V63.4932C144.972 60.4333 144.264 58.6185 142.848 58.0488C142.392 57.8535 141.879 57.7559 141.31 57.7559C139.226 57.7559 137.818 58.7568 137.086 60.7588C136.809 61.4912 136.671 62.4027 136.671 63.4932V75.2607ZM147.315 76.5303C148.129 76.221 148.577 75.1549 148.658 73.332C148.756 71.5091 148.805 70.1582 148.805 69.2793C148.805 68.3841 148.797 67.6436 148.78 67.0576C148.78 66.4554 148.772 65.8369 148.756 65.2021C148.691 62.8258 148.504 61.4424 148.194 61.0518C147.885 60.6611 147.592 60.4007 147.315 60.2705V76.5303Z" fill="black"/>
<path d="M180.763 75.627C181.121 74.9434 181.78 74.6016 182.74 74.6016C183.391 74.6016 183.896 74.8701 184.254 75.4072C184.547 75.8304 184.693 76.3512 184.693 76.9697C184.693 77.5719 184.539 78.1823 184.229 78.8008C183.92 79.4193 183.497 79.9808 182.96 80.4854C182.423 80.9899 181.804 81.4375 181.104 81.8281C180.421 82.2188 179.688 82.5443 178.907 82.8047C177.296 83.3418 175.619 83.6104 173.878 83.6104C172.136 83.6104 170.501 83.3255 168.971 82.7559C167.457 82.1699 166.155 81.3561 165.064 80.3145C162.932 78.2637 161.63 75.4479 161.158 71.8672C161.044 71.0697 160.857 70.5 160.597 70.1582C160.108 69.556 159.303 68.9782 158.18 68.4248C159.596 67.79 160.499 66.7728 160.89 65.373C161.004 64.9824 161.093 64.5918 161.158 64.2012C161.565 61.3366 163.014 58.8952 165.504 56.877C167.913 54.9238 170.606 53.9473 173.585 53.9473C176.677 53.9473 179.355 55.0378 181.617 57.2188C183.961 59.4648 185.133 62.2236 185.133 65.4951C185.133 65.609 185.125 65.723 185.108 65.8369C185.108 65.9508 185.117 66.0566 185.133 66.1543C185.165 66.3659 185.296 66.488 185.523 66.5205C185.816 66.8949 185.963 67.2936 185.963 67.7168C185.963 68.6934 185.442 69.2712 184.4 69.4502C184.14 69.499 183.733 69.5641 183.18 69.6455L169.41 71.8428V74.1865C169.41 76.0745 169.98 77.5719 171.119 78.6787C172.193 79.7367 173.552 80.2656 175.196 80.2656C176.938 80.2656 178.338 79.9076 179.396 79.1914C180.388 78.5078 180.885 77.6126 180.885 76.5059C180.885 76.2454 180.844 75.9525 180.763 75.627ZM176.49 67.7412V60.9053C176.49 59.8311 176.279 59.0417 175.855 58.5371C175.107 57.6745 174.366 57.2432 173.634 57.2432C172.901 57.2432 172.291 57.3571 171.803 57.585C171.314 57.7965 170.891 58.1383 170.533 58.6104C169.785 59.6032 169.41 61.1494 169.41 63.249V68.8887L176.49 67.7412ZM180.104 67.1309V66.374C180.104 63.3467 179.851 61.5156 179.347 60.8809C179.119 60.6042 178.867 60.4007 178.59 60.2705V67.375L180.104 67.1309ZM165.431 76.5303C165.659 76.3512 165.772 76.1478 165.772 75.9199C165.772 75.5618 165.699 75.1061 165.553 74.5527C164.885 71.9974 164.552 70.2233 164.552 69.2305C164.552 68.2214 164.584 67.4401 164.649 66.8867C164.715 66.3171 164.804 65.7474 164.918 65.1777C165.113 64.071 165.325 63.0944 165.553 62.248C165.699 61.6947 165.772 61.3203 165.772 61.125C165.772 60.7344 165.659 60.4495 165.431 60.2705C164.747 61.0843 164.226 62.1748 163.868 63.542C163.51 64.9092 163.217 66.1136 162.989 67.1553C162.908 67.5947 162.428 68.0179 161.549 68.4248C162.428 68.8317 162.908 69.2386 162.989 69.6455C163.591 72.3962 164.088 74.1458 164.479 74.8945C164.869 75.6432 165.187 76.1885 165.431 76.5303Z" fill="black"/>
<path d="M193.702 82.707C192.953 83.2279 192.099 83.4883 191.139 83.4883C190.178 83.4883 189.479 83.2686 189.039 82.8291C188.616 82.3734 188.404 81.9421 188.404 81.5352C188.404 80.998 188.494 80.6074 188.673 80.3633C189.031 80.64 189.487 80.7783 190.04 80.7783C191.082 80.7783 191.757 80.2738 192.066 79.2646V71.8672C192.066 71.1185 191.92 70.5651 191.627 70.207C191.106 69.5723 190.26 68.9701 189.088 68.4004C191.074 67.4889 192.066 66.0892 192.066 64.2012V61.6377C192.066 60.2542 191.594 59.5055 190.65 59.3916C190.374 59.359 190.024 59.3428 189.601 59.3428C189.177 59.3428 188.787 59.4811 188.429 59.7578C188.201 59.4486 188.087 59.1312 188.087 58.8057C188.087 58.4639 188.168 58.0895 188.331 57.6826C188.51 57.2594 188.779 56.8607 189.137 56.4863C189.983 55.6074 190.968 55.168 192.091 55.168C193.23 55.168 194.174 55.347 194.923 55.7051C195.818 54.696 196.778 54.1914 197.804 54.1914C199.399 54.1914 200.196 55.0703 200.196 56.8281V60.1729C201.824 56.1689 204.412 54.167 207.96 54.167C209.555 54.167 210.849 54.6553 211.842 55.6318C212.867 56.6247 213.38 58 213.38 59.7578V60.0996C213.38 60.2135 213.364 60.4495 213.331 60.8076C213.299 61.1494 213.307 61.4993 213.355 61.8574C213.421 62.2155 213.518 62.5085 213.648 62.7363C213.827 63.0781 214.161 63.3467 214.649 63.542C214.535 63.9814 214.267 64.3802 213.844 64.7383C213.437 65.0801 212.981 65.251 212.477 65.251H212.013C211.378 66.0485 210.491 66.61 209.352 66.9355C209.026 67.0332 208.668 67.082 208.277 67.082C207.903 67.082 207.569 67.0007 207.276 66.8379C207 66.6589 206.845 66.4717 206.812 66.2764C207.122 66.1299 207.276 65.8369 207.276 65.3975V65.2754C207.146 65.3079 207.032 65.3242 206.935 65.3242H206.69C206.153 65.3242 205.665 65.1208 205.226 64.7139C204.802 64.307 204.526 63.7943 204.396 63.1758C205.274 63.2083 206.039 62.8828 206.69 62.1992C207.276 61.597 207.569 60.9785 207.569 60.3438C207.569 58.8464 206.918 58.0977 205.616 58.0977C204.493 58.0977 203.362 58.9928 202.223 60.7832C201.148 62.4271 200.473 64.1279 200.196 65.8857V79.0938C200.375 79.6634 200.652 80.0866 201.026 80.3633C201.401 80.64 201.913 80.7783 202.564 80.7783C203.215 80.7783 203.72 80.64 204.078 80.3633C204.257 80.6074 204.347 80.9655 204.347 81.4375C204.347 81.9095 204.127 82.3734 203.688 82.8291C203.264 83.2686 202.54 83.4883 201.515 83.4883C200.506 83.4883 199.537 83.2116 198.609 82.6582C197.958 83.2116 197.169 83.4883 196.241 83.4883C195.313 83.4883 194.467 83.2279 193.702 82.707ZM195.802 71.1348C195.818 70.5814 195.826 70.1175 195.826 69.7432C195.842 69.3688 195.851 69.0677 195.851 68.8398V68.1807C195.851 67.9365 195.842 67.6273 195.826 67.2529C195.826 66.8623 195.818 66.431 195.802 65.959C195.802 65.4707 195.794 64.9987 195.777 64.543C195.68 62.8503 195.493 61.7679 195.216 61.2959C194.955 60.8076 194.687 60.474 194.41 60.2949V61.8818C194.41 64.6162 194.345 66.2275 194.215 66.7158C194.101 67.1878 193.906 67.5459 193.629 67.79C193.368 68.0179 192.978 68.2214 192.457 68.4004C193.434 68.7422 193.987 69.1572 194.117 69.6455C194.312 70.4268 194.41 72.1846 194.41 74.9189V76.5059C195.159 76.0176 195.582 75.0247 195.68 73.5273C195.761 72.4694 195.802 71.6719 195.802 71.1348Z" fill="black"/>
<path d="M232.325 82.8291C231.723 83.2686 231.031 83.4883 230.25 83.4883C229.485 83.4883 228.867 83.293 228.395 82.9023C227.939 82.4954 227.711 82.0316 227.711 81.5107C227.711 80.9899 227.792 80.6074 227.955 80.3633C228.427 80.64 229.176 80.7783 230.201 80.7783C230.608 80.7783 231.056 80.5749 231.544 80.168C232.032 79.7448 232.423 79.167 232.716 78.4346V66.9844C232.716 66.2194 232.553 65.6497 232.228 65.2754C231.739 64.6895 230.909 64.1117 229.737 63.542C230.925 62.9723 231.674 62.5003 231.983 62.126C232.472 61.5075 232.716 60.8158 232.716 60.0508L232.74 49.4062C232.35 48.3809 231.487 47.8682 230.152 47.8682C229.469 47.8682 228.964 48.0065 228.639 48.2832C228.476 48.0716 228.395 47.7949 228.395 47.4531C228.395 47.1113 228.468 46.8021 228.614 46.5254C228.761 46.2487 228.964 46.0046 229.225 45.793C229.778 45.3698 230.519 45.1582 231.446 45.1582C232.374 45.1582 233.139 45.4268 233.741 45.9639C234.278 45.4268 234.905 45.1582 235.621 45.1582C236.337 45.1582 236.948 45.4593 237.452 46.0615C238.087 45.4593 238.648 45.1582 239.137 45.1582C239.625 45.1582 239.999 45.1989 240.26 45.2803C240.52 45.3617 240.781 45.5163 241.041 45.7441C241.562 46.151 242.107 46.973 242.677 48.21L252.027 67.6191L259.742 48.6006L260.426 47.0137C260.833 46.1185 261.215 45.5895 261.573 45.4268C261.931 45.2477 262.346 45.1582 262.818 45.1582C263.307 45.1582 263.803 45.3372 264.308 45.6953C264.926 45.3372 265.732 45.1582 266.725 45.1582C267.734 45.1582 268.604 45.4268 269.337 45.9639C269.988 45.4268 270.663 45.1582 271.363 45.1582C272.079 45.1582 272.633 45.2152 273.023 45.3291C273.43 45.443 273.78 45.5977 274.073 45.793C274.692 46.2324 275.001 46.7777 275.001 47.4287C275.001 47.7542 274.911 48.0391 274.732 48.2832C274.374 48.0065 273.919 47.8682 273.365 47.8682C272.128 47.8682 271.29 48.446 270.851 49.6016V60.0508C270.851 60.8483 271.021 61.4424 271.363 61.833C271.9 62.4678 272.722 63.0374 273.829 63.542C272.641 64.1279 271.884 64.6081 271.559 64.9824C271.087 65.5684 270.851 66.2357 270.851 66.9844V78.9229C271.404 80.1598 272.405 80.7783 273.854 80.7783C274.407 80.7783 274.863 80.64 275.221 80.3633C275.4 80.6074 275.489 80.8923 275.489 81.2178C275.489 81.527 275.392 81.82 275.196 82.0967C275.017 82.3734 274.765 82.6094 274.439 82.8047C273.691 83.2604 272.836 83.4883 271.876 83.4883C270.916 83.4883 270.021 83.2279 269.19 82.707C268.425 83.2279 267.555 83.4883 266.578 83.4883C265.536 83.4883 264.617 83.2279 263.819 82.707C262.989 83.2279 262.216 83.4883 261.5 83.4883C260.8 83.4883 260.222 83.4232 259.767 83.293C259.311 83.179 258.912 83.0163 258.57 82.8047C257.87 82.3815 257.521 81.8525 257.521 81.2178C257.521 80.8923 257.61 80.6074 257.789 80.3633C258.147 80.64 258.603 80.7783 259.156 80.7783C260.605 80.7783 261.606 80.1598 262.159 78.9229V52.2383L252.638 75.8223L251.588 78.2148C251.083 79.3542 250.725 79.9971 250.514 80.1436C250.318 80.29 250.156 80.3633 250.025 80.3633C249.618 80.3633 249.334 80.3226 249.171 80.2412L236.134 54.5332V78.4102C236.443 79.1589 236.866 79.7448 237.403 80.168C237.94 80.5749 238.543 80.7783 239.21 80.7783C239.877 80.7783 240.447 80.64 240.919 80.3633C241.098 80.6562 241.188 81.0632 241.188 81.584C241.188 82.0885 240.935 82.5361 240.431 82.9268C239.926 83.3011 239.275 83.4883 238.478 83.4883C237.68 83.4883 236.948 83.2848 236.28 82.8779C235.694 83.2848 235.019 83.4883 234.254 83.4883C233.505 83.4883 232.862 83.2686 232.325 82.8291ZM239.576 52.458C239.413 52.7021 239.332 53.0521 239.332 53.5078C239.332 54.8262 239.885 56.5758 240.992 58.7568L249.879 76.5059C249.993 76.3594 250.05 76.0501 250.05 75.5781C250.05 74.1621 249.374 72.0869 248.023 69.3525L239.576 52.458ZM264.503 76.5303C265.317 76.221 265.764 75.1549 265.846 73.332C265.943 71.5091 265.992 68.9863 265.992 65.7637C265.992 62.541 265.984 60.4007 265.968 59.3428C265.968 58.2686 265.96 57.4059 265.943 56.7549C265.895 54.8343 265.707 53.6787 265.382 53.2881C265.073 52.8812 264.78 52.6126 264.503 52.4824V76.5303ZM235.792 76.8477C235.792 76.9779 235.8 77.0755 235.816 77.1406L235.792 76.8477ZM233.058 76.8477C233.041 76.9128 233.033 77.0104 233.033 77.1406L233.058 76.8477Z" fill="black"/>
<path d="M296.461 80.6807C294.98 82.6338 292.758 83.6104 289.796 83.6104C286.183 83.6104 283.473 82.528 281.666 80.3633C280.885 79.4355 280.348 78.402 280.055 77.2627C279.892 76.5791 279.607 76.0583 279.2 75.7002C278.793 75.3258 278.289 74.9922 277.687 74.6992C278.858 74.1621 279.697 73.153 280.201 71.6719C280.738 70.1094 281.633 68.9782 282.887 68.2783C284.238 67.5459 285.727 67.1634 287.354 67.1309C288.982 67.082 290.187 67.0251 290.968 66.96C291.749 66.8949 292.441 66.7891 293.043 66.6426C294.166 66.3822 295.045 65.902 295.68 65.2021V61.54C295.68 59.9287 295.346 58.7487 294.679 58C294.028 57.2513 293.027 56.877 291.676 56.877C290.341 56.877 289.348 57.1292 288.697 57.6338C288.062 58.1221 287.745 58.7812 287.745 59.6113C287.745 60.8809 288.396 61.4993 289.698 61.4668C289.438 62.7363 288.754 63.3711 287.647 63.3711C287.322 63.3711 287.005 63.3141 286.695 63.2002V63.2734C286.695 63.6966 286.891 63.9652 287.281 64.0791C286.874 64.6976 286.191 64.9987 285.23 64.9824C284.27 64.9661 283.521 64.4535 282.984 63.4443C282.74 63.5094 282.455 63.542 282.13 63.542C281.821 63.542 281.471 63.4362 281.08 63.2246C280.706 63.013 280.405 62.7201 280.177 62.3457C280.991 61.8574 281.487 61.1006 281.666 60.0752C281.861 58.8219 282.862 57.5524 284.669 56.2666C286.85 54.7204 289.633 53.9473 293.019 53.9473C298.634 53.9473 302.06 55.6725 303.297 59.123C303.704 60.2786 303.907 61.6458 303.907 63.2246V65.2021C303.907 65.9997 304.103 66.6507 304.493 67.1553C304.9 67.6598 305.584 68.0749 306.544 68.4004C305.519 68.8724 304.859 69.2956 304.566 69.6699C304.127 70.2396 303.907 70.8906 303.907 71.623V78.9473C304.379 80.168 305.055 80.7783 305.934 80.7783C306.487 80.7783 306.943 80.64 307.301 80.3633C307.529 80.6725 307.643 81.0632 307.643 81.5352C307.643 81.9909 307.407 82.4303 306.935 82.8535C306.479 83.2767 305.787 83.4883 304.859 83.4883C303.932 83.4883 303.069 83.2279 302.271 82.707C301.572 83.2279 300.945 83.4883 300.392 83.4883C299.854 83.4883 299.382 83.4313 298.976 83.3174C298.585 83.2197 298.219 83.057 297.877 82.8291C297.112 82.3245 296.64 81.6084 296.461 80.6807ZM297.999 76.5303C298.943 76.1559 299.439 74.3574 299.488 71.1348C299.488 70.4512 299.488 69.6699 299.488 68.791C299.488 67.9121 299.48 67.1634 299.464 66.5449C299.464 65.9102 299.456 65.3079 299.439 64.7383C299.374 62.6875 299.187 61.4668 298.878 61.0762C298.569 60.6693 298.276 60.4007 297.999 60.2705V76.5303ZM288.99 74.7969C288.99 75.4805 289.063 76.1478 289.21 76.7988C289.356 77.4499 289.576 78.0195 289.869 78.5078C290.52 79.5332 291.44 80.0459 292.628 80.0459C293.523 80.0459 294.264 79.6797 294.85 78.9473C295.403 78.2311 295.68 77.3115 295.68 76.1885V68.2295C294.638 68.8317 293.303 69.2467 291.676 69.4746C289.885 69.7513 288.99 71.5254 288.99 74.7969ZM285.328 80.29C285.491 80.1761 285.572 80.0296 285.572 79.8506C285.572 79.6064 285.458 79.2646 285.23 78.8252C284.417 77.3278 284.01 76.099 284.01 75.1387C284.01 74.1784 284.042 73.4867 284.107 73.0635C284.189 72.6403 284.286 72.2822 284.4 71.9893C284.531 71.68 284.669 71.4115 284.815 71.1836C284.978 70.9557 285.117 70.7523 285.23 70.5732C285.442 70.1989 285.548 69.9466 285.548 69.8164C285.548 69.6699 285.475 69.5479 285.328 69.4502C284.661 69.7594 284.173 70.1257 283.863 70.5488C283.31 71.2975 282.903 72.266 282.643 73.4541C282.577 73.7959 282.008 74.2109 280.934 74.6992C281.975 75.1712 282.545 75.5863 282.643 75.9443C283.196 77.8812 284.091 79.3298 285.328 80.29Z" fill="black"/>
<path d="M331.104 75.627C331.463 74.9434 332.122 74.6016 333.082 74.6016C333.733 74.6016 334.238 74.8701 334.596 75.4072C334.889 75.8304 335.035 76.3512 335.035 76.9697C335.035 77.5719 334.881 78.1823 334.571 78.8008C334.278 79.4193 333.88 79.9808 333.375 80.4854C332.87 80.9899 332.285 81.4375 331.617 81.8281C330.966 82.2188 330.266 82.5443 329.518 82.8047C328.004 83.3418 326.425 83.6104 324.781 83.6104C323.137 83.6104 321.583 83.3255 320.118 82.7559C318.653 82.1699 317.392 81.3561 316.334 80.3145C314.202 78.2148 312.916 75.3991 312.477 71.8672C312.363 71.0697 312.175 70.5 311.915 70.1582C311.427 69.556 310.621 68.9782 309.498 68.4248C311.223 67.6436 312.216 66.2357 312.477 64.2012C312.9 61.0924 314.283 58.6348 316.627 56.8281C318.873 55.0703 321.607 54.1914 324.83 54.1914C327.613 54.1914 329.957 55.0378 331.861 56.7305C333.668 58.3255 334.571 60.1729 334.571 62.2725C334.571 63.4606 334.986 64.2174 335.816 64.543C335.328 65.3405 334.645 65.7393 333.766 65.7393C333.456 65.7393 333.172 65.7067 332.911 65.6416C332.341 66.4717 331.52 67.0332 330.445 67.3262C330.104 67.4076 329.778 67.4482 329.469 67.4482C329.16 67.4482 328.793 67.3913 328.37 67.2773C327.947 67.1471 327.654 66.9762 327.491 66.7646C327.963 66.5693 328.24 66.0811 328.321 65.2998C328.224 65.3161 328.134 65.3242 328.053 65.3242H327.857C326.751 65.3242 326.067 64.6895 325.807 63.4199C327.011 63.4199 327.89 62.9561 328.443 62.0283C328.639 61.7028 328.736 61.304 328.736 60.832C328.736 59.7904 328.403 58.9766 327.735 58.3906C327.068 57.7884 326.14 57.4873 324.952 57.4873C322.201 57.4873 320.826 59.2614 320.826 62.8096V74.6748C320.826 77.4417 321.884 79.1914 324 79.9238C324.618 80.1517 325.318 80.2656 326.1 80.2656C326.881 80.2656 327.589 80.168 328.224 79.9727C328.875 79.7773 329.42 79.5088 329.859 79.167C330.755 78.4671 331.202 77.5801 331.202 76.5059C331.202 76.1803 331.17 75.8874 331.104 75.627ZM316.749 76.5303C316.977 76.3512 317.091 76.1478 317.091 75.9199C317.091 75.5618 317.018 75.1061 316.871 74.5527C316.204 71.9974 315.87 70.2233 315.87 69.2305C315.87 68.2214 315.903 67.4401 315.968 66.8867C316.033 66.3171 316.122 65.7474 316.236 65.1777C316.432 64.071 316.643 63.0944 316.871 62.248C317.018 61.6947 317.091 61.3203 317.091 61.125C317.091 60.7344 316.977 60.4495 316.749 60.2705C316.065 61.0843 315.545 62.1748 315.187 63.542C314.828 64.9092 314.535 66.1136 314.308 67.1553C314.226 67.5785 313.746 67.9935 312.867 68.4004C313.746 68.8073 314.226 69.2223 314.308 69.6455C314.91 72.3962 315.406 74.1458 315.797 74.8945C316.188 75.6432 316.505 76.1885 316.749 76.5303Z" fill="black"/>
<path d="M342.701 82.707C341.952 83.2279 341.098 83.4883 340.138 83.4883C339.194 83.4883 338.486 83.2767 338.014 82.8535C337.558 82.4303 337.33 82.0234 337.33 81.6328C337.33 81.0957 337.444 80.6725 337.672 80.3633C338.03 80.64 338.486 80.7783 339.039 80.7783C339.983 80.7783 340.659 80.2331 341.065 79.1426V71.623C341.065 70.8092 340.911 70.2559 340.602 69.9629C340.227 69.5723 339.389 69.0596 338.087 68.4248C339.226 67.904 339.951 67.4889 340.26 67.1797C340.797 66.6426 341.065 65.9834 341.065 65.2021V51.3838C341.065 49.5283 340.309 48.6006 338.795 48.6006C338.242 48.6006 337.786 48.7389 337.428 49.0156C337.2 48.7064 337.086 48.389 337.086 48.0635C337.086 47.7217 337.167 47.3962 337.33 47.0869C337.509 46.7777 337.77 46.4928 338.111 46.2324C338.893 45.679 339.869 45.4023 341.041 45.4023C342.213 45.4023 343.124 45.4756 343.775 45.6221C344.671 44.499 345.68 43.9375 346.803 43.9375C348.479 43.9375 349.317 44.8164 349.317 46.5742V58.6104C350.896 55.6644 353.476 54.1914 357.057 54.1914C361.158 54.1914 363.771 56.0062 364.894 59.6357C365.252 60.7913 365.431 62.1016 365.431 63.5664V65.2021C365.431 65.9671 365.602 66.5205 365.943 66.8623C366.448 67.3669 367.27 67.8796 368.409 68.4004C367.172 69.0026 366.407 69.4665 366.114 69.792C365.659 70.2965 365.431 70.9069 365.431 71.623V79.2646C365.74 80.2738 366.415 80.7783 367.457 80.7783C368.01 80.7783 368.466 80.64 368.824 80.3633C369.003 80.6074 369.093 80.9655 369.093 81.4375C369.093 81.9095 368.873 82.3734 368.434 82.8291C368.01 83.2686 367.327 83.4883 366.383 83.4883C365.439 83.4883 364.568 83.2279 363.771 82.707C363.038 83.2279 362.208 83.4883 361.28 83.4883C360.369 83.4883 359.571 83.2441 358.888 82.7559C358.253 83.2441 357.537 83.4883 356.739 83.4883C355.958 83.4883 355.331 83.2848 354.859 82.8779C354.387 82.471 354.151 81.8851 354.151 81.1201C354.151 80.762 354.273 80.4772 354.518 80.2656C354.892 80.5586 355.266 80.7051 355.641 80.7051C356.357 80.7051 356.869 80.3063 357.179 79.5088V64.958C357.179 61.7842 356.406 59.9531 354.859 59.4648C354.371 59.3021 353.842 59.2207 353.272 59.2207C351.58 59.2207 350.4 60.1159 349.732 61.9062C349.521 62.4596 349.382 63.0618 349.317 63.7129V79.5088C349.627 80.3063 350.139 80.7051 350.855 80.7051C351.23 80.7051 351.604 80.5586 351.979 80.2656C352.223 80.4772 352.345 80.8678 352.345 81.4375C352.345 81.9909 352.109 82.471 351.637 82.8779C351.165 83.2848 350.53 83.4883 349.732 83.4883C348.935 83.4883 348.219 83.2441 347.584 82.7559C346.917 83.2441 346.127 83.4883 345.216 83.4883C344.304 83.4883 343.466 83.2279 342.701 82.707ZM343.36 76.5059C344.093 76.0339 344.524 75.0003 344.654 73.4053C344.703 72.7054 344.736 71.9242 344.752 71.0615C344.768 70.1989 344.776 69.5885 344.776 69.2305C344.793 68.8561 344.801 68.5794 344.801 68.4004V66.2031C344.801 65.6009 344.801 64.9173 344.801 64.1523L344.752 61.7598C344.719 57.4466 344.646 55.0459 344.532 54.5576C344.304 53.5322 343.914 52.8405 343.36 52.4824V60.71C343.36 64.0791 343.32 65.959 343.238 66.3496C343.173 66.724 343.116 67.0007 343.067 67.1797C342.921 67.6842 342.368 68.0993 341.407 68.4248C342.384 68.7666 342.937 69.1735 343.067 69.6455C343.263 70.4268 343.36 72.1846 343.36 74.9189V76.5059ZM359.498 76.5303C360.312 76.221 360.768 75.1549 360.865 73.332C360.947 71.5091 360.987 69.8408 360.987 68.3271C360.987 66.7972 360.938 65.5521 360.841 64.5918C360.743 63.6315 360.58 62.8747 360.353 62.3213C360.141 61.7516 359.864 61.3285 359.522 61.0518C359.181 60.7588 358.766 60.4902 358.277 60.2461C358.896 61.7109 359.254 63.0456 359.352 64.25C359.449 65.4544 359.498 66.6182 359.498 67.7412V76.5303Z" fill="black"/>
<path d="M378.858 50.7002C378.028 50.7002 377.223 50.4805 376.441 50.041C375.676 49.6016 375.09 49.0156 374.684 48.2832C374.244 47.5345 373.658 46.9648 372.926 46.5742C372.698 46.4603 372.438 46.3382 372.145 46.208L372.975 45.6953C373.756 45.207 374.334 44.613 374.708 43.9131C375.082 43.2132 375.644 42.668 376.393 42.2773C377.158 41.8704 377.979 41.667 378.858 41.667C380.681 41.667 382 42.432 382.813 43.9619C383.367 44.971 384.221 45.7197 385.377 46.208C385.133 46.3545 384.889 46.4847 384.645 46.5986C384.417 46.7126 384.197 46.8428 383.985 46.9893C383.513 47.3148 383.09 47.7949 382.716 48.4297C382.358 49.0645 381.829 49.6016 381.129 50.041C380.445 50.4805 379.688 50.7002 378.858 50.7002ZM377.564 47.7217C377.467 47.5426 377.385 47.3392 377.32 47.1113C377.271 46.8672 377.247 46.444 377.247 45.8418C377.247 45.2396 377.556 44.4746 378.175 43.5469C377.573 43.5469 377.149 43.6608 376.905 43.8887C376.661 44.1003 376.474 44.2874 376.344 44.4502C376.23 44.5967 376.124 44.7513 376.026 44.9141C375.945 45.0605 375.839 45.2233 375.709 45.4023C375.4 45.8418 375.147 46.1104 374.952 46.208C375.213 46.3545 375.449 46.5905 375.66 46.916C375.888 47.2253 376.148 47.5508 376.441 47.8926C376.881 48.4297 377.459 48.6982 378.175 48.6982C378.077 48.5192 377.971 48.3564 377.857 48.21C377.76 48.0472 377.662 47.8844 377.564 47.7217ZM376.417 82.707C375.668 83.2279 374.814 83.4883 373.854 83.4883C372.91 83.4883 372.201 83.2767 371.729 82.8535C371.274 82.4303 371.046 82.0234 371.046 81.6328C371.046 81.0957 371.16 80.6725 371.388 80.3633C371.746 80.64 372.275 80.7783 372.975 80.7783C373.674 80.7783 374.277 80.3226 374.781 79.4111V71.623C374.781 70.9069 374.635 70.3861 374.342 70.0605C373.87 69.5723 373.023 69.027 371.803 68.4248C372.942 67.904 373.666 67.4889 373.976 67.1797C374.513 66.6426 374.781 65.9834 374.781 65.2021V61.6377C374.781 60.2542 374.309 59.5055 373.365 59.3916C373.089 59.359 372.739 59.3428 372.315 59.3428C371.892 59.3428 371.502 59.4811 371.144 59.7578C370.916 59.4486 370.802 59.1312 370.802 58.8057C370.802 58.4639 370.883 58.0895 371.046 57.6826C371.225 57.2594 371.493 56.8607 371.852 56.4863C372.698 55.6074 373.674 55.168 374.781 55.168C375.888 55.168 376.889 55.3633 377.784 55.7539C378.582 54.7122 379.493 54.1914 380.519 54.1914C382.195 54.1914 383.033 55.0703 383.033 56.8281V65.2021C383.033 65.9834 383.204 66.5449 383.546 66.8867C384.05 67.3913 384.872 67.904 386.012 68.4248C384.791 69.027 384.026 69.4827 383.717 69.792C383.261 70.2965 383.033 70.9069 383.033 71.623V79.4844C383.57 80.347 384.181 80.7783 384.864 80.7783C385.548 80.7783 386.069 80.64 386.427 80.3633C386.655 80.6725 386.769 81.0632 386.769 81.5352C386.769 81.9909 386.533 82.4303 386.061 82.8535C385.605 83.2767 384.913 83.4883 383.985 83.4883C383.058 83.4883 382.195 83.2279 381.397 82.707C380.73 83.2279 379.924 83.4883 378.98 83.4883C378.036 83.4883 377.182 83.2279 376.417 82.707ZM378.517 71.1348C378.533 70.5814 378.541 70.1175 378.541 69.7432C378.557 69.3688 378.565 69.0677 378.565 68.8398V68.1807C378.565 67.9365 378.557 67.6191 378.541 67.2285C378.541 66.8379 378.533 66.4066 378.517 65.9346C378.517 65.4626 378.508 64.9987 378.492 64.543C378.427 63.4199 378.346 62.6468 378.248 62.2236C378.053 61.2796 377.678 60.6286 377.125 60.2705V61.8574C377.125 64.6081 377.06 66.2275 376.93 66.7158C376.816 67.1878 376.62 67.5459 376.344 67.79C376.083 68.0179 375.693 68.2214 375.172 68.4004C376.148 68.7422 376.702 69.1572 376.832 69.6455C377.027 70.4268 377.125 72.1927 377.125 74.9434V76.5303C377.874 76.042 378.297 75.041 378.395 73.5273C378.476 72.4857 378.517 71.6882 378.517 71.1348Z" fill="black"/>
<path d="M393.971 82.707C393.222 83.2279 392.368 83.4883 391.407 83.4883C390.447 83.4883 389.747 83.2686 389.308 82.8291C388.884 82.3734 388.673 81.9421 388.673 81.5352C388.673 80.998 388.762 80.6074 388.941 80.3633C389.299 80.64 389.755 80.7783 390.309 80.7783C391.35 80.7783 392.026 80.2738 392.335 79.2646V71.6719C392.335 70.9557 392.18 70.4349 391.871 70.1094C391.399 69.5723 390.561 69.0107 389.356 68.4248C390.496 67.904 391.22 67.4889 391.529 67.1797C392.066 66.6426 392.335 65.9834 392.335 65.2021V61.6377C392.335 60.2542 391.863 59.5055 390.919 59.3916C390.642 59.359 390.292 59.3428 389.869 59.3428C389.446 59.3428 389.055 59.4811 388.697 59.7578C388.469 59.4486 388.355 59.1312 388.355 58.8057C388.355 58.4639 388.437 58.0895 388.6 57.6826C388.779 57.2594 389.039 56.8607 389.381 56.4863C390.243 55.6074 391.236 55.168 392.359 55.168C393.499 55.168 394.443 55.347 395.191 55.7051C396.087 54.696 396.998 54.1914 397.926 54.1914C398.854 54.1914 399.496 54.4111 399.854 54.8506C400.213 55.2738 400.392 55.9329 400.392 56.8281V59.123C401.238 57.6094 402.394 56.4131 403.858 55.5342C405.323 54.639 406.878 54.1914 408.521 54.1914C410.165 54.1914 411.484 54.4111 412.477 54.8506C413.486 55.2738 414.316 55.8841 414.967 56.6816C416.236 58.2604 416.871 60.5553 416.871 63.5664V65.1777C416.871 65.959 417.042 66.5205 417.384 66.8623C417.888 67.3831 418.71 67.904 419.85 68.4248C418.629 69.027 417.864 69.4827 417.555 69.792C417.099 70.2965 416.871 70.9069 416.871 71.623V79.2646C417.18 80.2738 417.856 80.7783 418.897 80.7783C419.451 80.7783 419.907 80.64 420.265 80.3633C420.444 80.6074 420.533 80.9655 420.533 81.4375C420.533 81.9095 420.313 82.3734 419.874 82.8291C419.451 83.2686 418.792 83.4883 417.896 83.4883C417.001 83.4883 416.188 83.236 415.455 82.7314C414.804 83.236 414.039 83.4883 413.16 83.4883C412.298 83.4883 411.524 83.2441 410.841 82.7559C410.125 83.2441 409.36 83.4883 408.546 83.4883C407.732 83.4883 407.089 83.2848 406.617 82.8779C406.145 82.471 405.909 81.8851 405.909 81.1201C405.909 80.762 406.031 80.4772 406.275 80.2656C406.65 80.5586 407.024 80.7051 407.398 80.7051C408.115 80.7051 408.627 80.3063 408.937 79.5088V64.958C408.937 61.8005 408.163 59.9694 406.617 59.4648C406.113 59.3021 405.567 59.2207 404.981 59.2207C404.396 59.2207 403.85 59.3428 403.346 59.5869C402.841 59.8148 402.385 60.1403 401.979 60.5635C401.083 61.5075 400.554 62.6305 400.392 63.9326V79.5088C400.701 80.3063 401.214 80.7051 401.93 80.7051C402.304 80.7051 402.678 80.5586 403.053 80.2656C403.297 80.4772 403.419 80.8678 403.419 81.4375C403.419 81.9909 403.183 82.471 402.711 82.8779C402.239 83.2848 401.612 83.4883 400.831 83.4883C400.066 83.4883 399.366 83.2441 398.731 82.7559C398.113 83.2441 397.356 83.4883 396.461 83.4883C395.566 83.4883 394.736 83.2279 393.971 82.707ZM411.28 76.5303C412.094 76.221 412.542 75.1549 412.623 73.332C412.721 71.5091 412.77 69.792 412.77 68.1807C412.77 66.5693 412.704 65.2428 412.574 64.2012C412.444 63.1432 412.257 62.3213 412.013 61.7354C411.769 61.1331 411.476 60.7018 411.134 60.4414C410.808 60.1647 410.45 59.9287 410.06 59.7334C410.678 61.1982 411.036 62.5329 411.134 63.7373C411.231 64.9417 411.28 66.1055 411.28 67.2285V76.5303ZM396.07 71.1348C396.087 70.5977 396.095 70.1501 396.095 69.792C396.111 69.4176 396.119 69.1165 396.119 68.8887C396.119 68.6608 396.119 68.4329 396.119 68.2051C396.119 67.9609 396.111 67.6436 396.095 67.2529C396.095 66.8623 396.087 66.431 396.07 65.959C396.07 65.487 396.054 65.0231 396.021 64.5674C395.973 63.4443 395.899 62.6712 395.802 62.248C395.606 61.304 395.232 60.653 394.679 60.2949V61.8818C394.679 64.6162 394.614 66.2275 394.483 66.7158C394.369 67.1878 394.174 67.5459 393.897 67.79C393.637 68.0342 393.246 68.2458 392.726 68.4248C393.702 68.7666 394.256 69.1735 394.386 69.6455C394.581 70.4268 394.679 72.1846 394.679 74.9189V76.5059C395.427 76.0176 395.859 75.0247 395.973 73.5273C396.038 72.4694 396.07 71.6719 396.07 71.1348Z" fill="black"/>
<path d="M444.581 75.627C444.939 74.9434 445.598 74.6016 446.559 74.6016C447.21 74.6016 447.714 74.8701 448.072 75.4072C448.365 75.8304 448.512 76.3512 448.512 76.9697C448.512 77.5719 448.357 78.1823 448.048 78.8008C447.739 79.4193 447.315 79.9808 446.778 80.4854C446.241 80.9899 445.623 81.4375 444.923 81.8281C444.239 82.2188 443.507 82.5443 442.726 82.8047C441.114 83.3418 439.438 83.6104 437.696 83.6104C435.955 83.6104 434.319 83.3255 432.789 82.7559C431.275 82.1699 429.973 81.3561 428.883 80.3145C426.751 78.2637 425.449 75.4479 424.977 71.8672C424.863 71.0697 424.675 70.5 424.415 70.1582C423.927 69.556 423.121 68.9782 421.998 68.4248C423.414 67.79 424.317 66.7728 424.708 65.373C424.822 64.9824 424.911 64.5918 424.977 64.2012C425.383 61.3366 426.832 58.8952 429.322 56.877C431.731 54.9238 434.425 53.9473 437.403 53.9473C440.496 53.9473 443.173 55.0378 445.436 57.2188C447.779 59.4648 448.951 62.2236 448.951 65.4951C448.951 65.609 448.943 65.723 448.927 65.8369C448.927 65.9508 448.935 66.0566 448.951 66.1543C448.984 66.3659 449.114 66.488 449.342 66.5205C449.635 66.8949 449.781 67.2936 449.781 67.7168C449.781 68.6934 449.26 69.2712 448.219 69.4502C447.958 69.499 447.551 69.5641 446.998 69.6455L433.229 71.8428V74.1865C433.229 76.0745 433.798 77.5719 434.938 78.6787C436.012 79.7367 437.371 80.2656 439.015 80.2656C440.756 80.2656 442.156 79.9076 443.214 79.1914C444.207 78.5078 444.703 77.6126 444.703 76.5059C444.703 76.2454 444.662 75.9525 444.581 75.627ZM440.309 67.7412V60.9053C440.309 59.8311 440.097 59.0417 439.674 58.5371C438.925 57.6745 438.185 57.2432 437.452 57.2432C436.72 57.2432 436.109 57.3571 435.621 57.585C435.133 57.7965 434.71 58.1383 434.352 58.6104C433.603 59.6032 433.229 61.1494 433.229 63.249V68.8887L440.309 67.7412ZM443.922 67.1309V66.374C443.922 63.3467 443.67 61.5156 443.165 60.8809C442.937 60.6042 442.685 60.4007 442.408 60.2705V67.375L443.922 67.1309ZM429.249 76.5303C429.477 76.3512 429.591 76.1478 429.591 75.9199C429.591 75.5618 429.518 75.1061 429.371 74.5527C428.704 71.9974 428.37 70.2233 428.37 69.2305C428.37 68.2214 428.403 67.4401 428.468 66.8867C428.533 66.3171 428.622 65.7474 428.736 65.1777C428.932 64.071 429.143 63.0944 429.371 62.248C429.518 61.6947 429.591 61.3203 429.591 61.125C429.591 60.7344 429.477 60.4495 429.249 60.2705C428.565 61.0843 428.045 62.1748 427.687 63.542C427.328 64.9092 427.035 66.1136 426.808 67.1553C426.726 67.5947 426.246 68.0179 425.367 68.4248C426.246 68.8317 426.726 69.2386 426.808 69.6455C427.41 72.3962 427.906 74.1458 428.297 74.8945C428.688 75.6432 429.005 76.1885 429.249 76.5303Z" fill="black"/>
<path d="M150.002 17.4618C149.377 17.4618 148.743 17.5204 148.098 17.6376C147.473 17.7548 146.848 17.8915 146.223 18.0477C145.598 18.1845 144.973 18.3114 144.348 18.4286C143.723 18.5458 143.088 18.6044 142.444 18.6044C142.249 18.6044 142.043 18.5848 141.829 18.5458C141.633 18.4872 141.536 18.3114 141.536 18.0184C141.536 17.8231 141.614 17.6278 141.77 17.4325C141.946 17.2177 142.131 17.1005 142.327 17.0809L150.178 15.9384C150.198 15.8602 150.227 15.743 150.266 15.5868C150.305 15.411 150.354 15.245 150.413 15.0887C150.491 14.913 150.588 14.7665 150.706 14.6493C150.823 14.5126 150.959 14.4442 151.116 14.4442C151.35 14.4442 151.536 14.5028 151.672 14.62C151.809 14.7372 151.926 14.8739 152.024 15.0302C152.122 15.1669 152.209 15.2938 152.288 15.411C152.366 15.5282 152.463 15.5868 152.581 15.5868H152.815C153.01 15.5673 153.323 15.538 153.752 15.4989C154.182 15.4403 154.67 15.3817 155.217 15.3231C155.784 15.2645 156.379 15.2059 157.004 15.1473C157.629 15.0692 158.225 15.0106 158.791 14.9716C159.358 14.913 159.856 14.8641 160.286 14.8251C160.715 14.7665 161.028 14.7177 161.223 14.6786C161.282 14.6786 161.418 14.6786 161.633 14.6786C161.868 14.6591 162.034 14.6493 162.131 14.6493C162.131 15.0204 161.926 15.3329 161.516 15.5868C161.125 15.8212 160.618 16.0262 159.993 16.202C159.387 16.3583 158.704 16.4852 157.942 16.5829C157.2 16.661 156.467 16.7294 155.745 16.788C155.041 16.8466 154.387 16.8954 153.782 16.9345C153.196 16.9735 152.747 17.0223 152.434 17.0809C152.356 18.4677 152.385 19.913 152.522 21.4169C152.678 22.9208 152.864 24.4345 153.079 25.9579C153.313 27.4813 153.528 28.995 153.723 30.4989C153.918 32.0028 154.016 33.4384 154.016 34.8055C154.094 35.079 154.124 35.2938 154.104 35.4501C154.104 35.6063 154.055 35.7137 153.958 35.7723C153.86 35.8309 153.713 35.8602 153.518 35.8602C153.323 35.8602 153.088 35.8505 152.815 35.8309C152.62 35.1278 152.444 34.3075 152.288 33.37C152.151 32.413 152.024 31.3973 151.907 30.3231C151.79 29.2294 151.672 28.1063 151.555 26.954C151.458 25.8016 151.36 24.6591 151.262 23.5262C151.165 22.3934 151.057 21.3095 150.94 20.2743C150.823 19.2391 150.686 18.3016 150.53 17.4618H150.002ZM170.334 23.0282C169.612 22.7548 168.918 22.8622 168.254 23.3505C167.59 23.8387 166.956 24.5321 166.35 25.4305C165.745 26.3095 165.168 27.3153 164.622 28.4481C164.075 29.5809 163.567 30.6552 163.098 31.6708C162.629 32.6864 162.2 33.5555 161.809 34.2782C161.438 35.0009 161.096 35.4012 160.784 35.4794C160.549 35.4794 160.364 35.4403 160.227 35.3622C160.11 35.2645 160.051 35.0399 160.051 34.6884V14.0927C160.051 13.9169 160.12 13.8094 160.256 13.7704C160.413 13.7313 160.579 13.7216 160.754 13.7411C160.93 13.7606 161.096 13.8094 161.252 13.8876C161.409 13.9462 161.506 14.0145 161.545 14.0927L161.926 30.5868C162.141 30.2352 162.336 29.747 162.512 29.122C162.708 28.4774 162.932 27.7938 163.186 27.0712C163.44 26.329 163.733 25.5966 164.065 24.8739C164.416 24.1317 164.846 23.4677 165.354 22.8817C165.862 22.2958 166.477 21.8466 167.2 21.5341C167.942 21.202 168.811 21.0848 169.807 21.1825C170.471 21.1825 171.008 21.3973 171.418 21.827C171.829 22.2372 172.043 22.7841 172.063 23.4677L172.356 35.1571C172.356 35.2352 172.336 35.3524 172.297 35.5087C172.278 35.6454 172.2 35.7626 172.063 35.8602C171.946 35.9774 171.77 36.0458 171.536 36.0653C171.321 36.1044 171.038 36.0555 170.686 35.9188L170.334 23.0282ZM174.67 29.5028C174.573 29.5223 174.426 29.5516 174.231 29.5907C174.036 29.6298 173.831 29.6395 173.616 29.62C173.401 29.6005 173.215 29.5419 173.059 29.4442C172.883 29.3466 172.795 29.1805 172.795 28.9462C172.795 28.8095 172.825 28.7118 172.883 28.6532C172.942 28.5946 173.04 28.5067 173.176 28.3895C173.606 28.038 173.967 27.5887 174.26 27.0419C174.573 26.4755 174.856 25.8798 175.11 25.2548C175.364 24.6102 175.627 23.9755 175.901 23.3505C176.194 22.7059 176.526 22.1298 176.897 21.622C177.268 21.1141 177.727 20.704 178.274 20.3915C178.821 20.079 179.495 19.9325 180.295 19.952C180.627 19.952 180.999 20.0302 181.409 20.1864C181.819 20.3427 182.2 20.5575 182.551 20.8309C182.903 21.0848 183.196 21.3973 183.43 21.7684C183.665 22.1395 183.782 22.5497 183.782 22.9989C183.879 23.1552 183.782 23.3798 183.489 23.6727C183.215 23.9657 182.834 24.288 182.346 24.6395C181.858 24.9716 181.301 25.3231 180.676 25.6942C180.071 26.0458 179.485 26.3778 178.918 26.6903C178.352 27.0028 177.854 27.2762 177.424 27.5106C176.995 27.745 176.711 27.9208 176.575 28.038C176.477 28.2333 176.399 28.4579 176.34 28.7118C176.282 28.9657 176.233 29.2098 176.194 29.4442C176.174 29.6591 176.155 29.8641 176.135 30.0595C176.135 30.2352 176.135 30.372 176.135 30.4696C176.135 30.8407 176.116 31.2509 176.077 31.7001C176.057 32.1493 176.077 32.579 176.135 32.9891C176.213 33.3798 176.379 33.7118 176.633 33.9852C176.887 34.2391 177.317 34.3661 177.922 34.3661C178.567 34.3661 179.172 34.2098 179.739 33.8973C180.305 33.5653 180.833 33.1649 181.321 32.6962C181.809 32.2274 182.249 31.7196 182.639 31.1727C183.049 30.6259 183.411 30.118 183.723 29.6493C184.055 29.161 184.348 28.7606 184.602 28.4481C184.856 28.1356 185.071 27.9794 185.247 27.9794C185.442 27.9794 185.647 28.0184 185.862 28.0966C186.096 28.1552 186.213 28.3114 186.213 28.5653C186.213 28.9169 186.067 29.3368 185.774 29.8251C185.5 30.3134 185.129 30.8309 184.661 31.3778C184.211 31.9247 183.684 32.4716 183.079 33.0184C182.493 33.5458 181.897 34.0243 181.291 34.454C180.686 34.8641 180.09 35.2059 179.504 35.4794C178.918 35.7333 178.401 35.8602 177.952 35.8602C177.073 35.8602 176.409 35.6454 175.959 35.2157C175.51 34.786 175.188 34.2489 174.993 33.6044C174.817 32.9598 174.719 32.2762 174.7 31.5536C174.7 30.8114 174.69 30.1278 174.67 29.5028ZM180.061 21.5927C179.729 21.5927 179.377 21.7587 179.006 22.0907C178.635 22.4032 178.284 22.7938 177.952 23.2626C177.639 23.7118 177.375 24.1805 177.161 24.6688C176.965 25.1376 176.868 25.5282 176.868 25.8407C177.161 25.8407 177.581 25.7333 178.127 25.5184C178.694 25.2841 179.25 25.0009 179.797 24.6688C180.344 24.3368 180.823 23.9852 181.233 23.6141C181.643 23.243 181.848 22.8915 181.848 22.5595C181.848 22.3837 181.78 22.2372 181.643 22.12C181.506 22.0028 181.34 21.9052 181.145 21.827C180.969 21.7489 180.784 21.6903 180.588 21.6512C180.393 21.6122 180.217 21.5927 180.061 21.5927ZM201.184 35.0692C201.243 34.7958 201.291 34.4442 201.331 34.0145C201.37 33.5848 201.418 33.0184 201.477 32.3153C201.555 31.6122 201.633 30.743 201.711 29.7079C201.809 28.6727 201.936 27.413 202.092 25.9286C202.249 24.4442 202.424 22.7059 202.62 20.7137C202.834 18.702 203.108 16.368 203.44 13.7118C203.459 13.5165 203.547 13.3993 203.704 13.3602C203.879 13.3212 204.036 13.3016 204.172 13.3016C204.387 13.3016 204.563 13.3798 204.7 13.536C204.836 13.6923 204.954 13.868 205.051 14.0634C205.168 14.2587 205.276 14.4637 205.374 14.6786C205.471 14.8934 205.579 15.0692 205.696 15.2059C205.891 15.6552 206.086 16.1727 206.282 16.7587C206.497 17.3446 206.721 17.9696 206.956 18.6337C207.19 19.2977 207.424 19.9716 207.659 20.6552C207.893 21.3192 208.127 21.9735 208.362 22.618C208.596 23.243 208.811 23.829 209.006 24.3759C209.221 24.9032 209.416 25.3427 209.592 25.6942C209.807 25.6747 210.11 25.5966 210.5 25.4598C210.891 25.3036 211.311 25.1571 211.76 25.0204C212.209 24.8837 212.649 24.7762 213.079 24.6981C213.508 24.62 213.87 24.62 214.163 24.6981C214.456 24.7567 214.641 24.9227 214.719 25.1962C214.817 25.4696 214.749 25.8993 214.514 26.4852C214.377 26.4852 214.25 26.4657 214.133 26.4266C214.016 26.368 213.899 26.3192 213.782 26.2802C213.665 26.2216 213.538 26.1727 213.401 26.1337C213.284 26.0751 213.147 26.0458 212.991 26.0458C212.893 26.0458 212.668 26.1044 212.317 26.2216C211.985 26.3192 211.624 26.4364 211.233 26.5731C210.842 26.6903 210.5 26.8173 210.208 26.954C209.915 27.0712 209.768 27.1591 209.768 27.2177L211.79 35.1571L211.028 36.2704C210.696 35.704 210.413 35.0595 210.178 34.3368C209.963 33.5946 209.758 32.8622 209.563 32.1395C209.368 31.3973 209.163 30.7137 208.948 30.0887C208.752 29.4442 208.499 28.9071 208.186 28.4774C207.776 28.6727 207.288 28.8387 206.721 28.9755C206.155 29.1122 205.608 29.288 205.081 29.5028C204.553 29.6981 204.094 29.9716 203.704 30.3231C203.333 30.6552 203.108 31.1141 203.03 31.7001C202.991 31.9345 202.952 32.247 202.913 32.6376C202.893 33.0282 202.864 33.3993 202.825 33.7509C202.766 34.1805 202.717 34.62 202.678 35.0692H201.184ZM204.553 17.8134L204.495 18.3114C204.475 18.6434 204.446 19.0341 204.407 19.4833C204.368 19.913 204.319 20.3622 204.26 20.8309C204.221 21.2802 204.192 21.661 204.172 21.9735C204.075 23.0673 203.967 24.1512 203.85 25.2255C203.752 26.2802 203.704 27.3641 203.704 28.4774C204.075 28.4774 204.465 28.4286 204.875 28.3309C205.305 28.2333 205.715 28.1063 206.106 27.9501C206.497 27.7743 206.848 27.5692 207.161 27.3348C207.493 27.0809 207.747 26.7977 207.922 26.4852C207.766 25.8016 207.59 25.0985 207.395 24.3759C207.219 23.6337 207.024 22.8915 206.809 22.1493C206.594 21.3876 206.36 20.6454 206.106 19.9227C205.852 19.2001 205.579 18.497 205.286 17.8134C205.266 17.7938 205.198 17.7548 205.081 17.6962C204.963 17.618 204.788 17.6571 204.553 17.8134ZM214.075 35.743C214.016 35.1962 213.967 34.454 213.928 33.5165C213.889 32.579 213.85 31.5634 213.811 30.4696C213.772 29.3563 213.723 28.204 213.665 27.0126C213.625 25.8212 213.577 24.6884 213.518 23.6141C213.459 22.5399 213.381 21.5634 213.284 20.6845C213.206 19.8055 213.118 19.1024 213.02 18.5751C213.02 18.1845 213.108 17.9598 213.284 17.9012C213.459 17.8231 213.684 17.7841 213.958 17.7841C213.997 17.7841 214.084 17.7841 214.221 17.7841C214.358 17.7841 214.456 17.7938 214.514 17.8134C214.69 18.3993 214.797 19.161 214.836 20.0985C214.895 21.0165 214.934 22.0223 214.954 23.1161C214.993 24.2098 215.022 25.3427 215.041 26.5145C215.081 27.6864 215.149 28.7997 215.247 29.8544C215.52 28.3114 215.745 27.0321 215.92 26.0165C216.116 25.0009 216.291 24.1903 216.448 23.5848C216.624 22.9598 216.78 22.5009 216.916 22.2079C217.073 21.8954 217.239 21.6903 217.415 21.5927C217.61 21.495 217.815 21.4559 218.03 21.4755C218.264 21.4755 218.538 21.4755 218.85 21.4755C219.202 21.4755 219.485 21.6122 219.7 21.8856C219.934 22.1591 220.11 22.5106 220.227 22.9403C220.364 23.37 220.461 23.8387 220.52 24.3466C220.598 24.8544 220.666 25.3524 220.725 25.8407C220.784 26.3095 220.842 26.7391 220.901 27.1298C220.979 27.5204 221.096 27.7938 221.252 27.9501C221.741 26.5048 222.161 25.3231 222.512 24.4052C222.864 23.4872 223.166 22.7645 223.42 22.2372C223.674 21.6903 223.899 21.2997 224.094 21.0653C224.29 20.8309 224.465 20.6942 224.622 20.6552C224.778 20.5966 224.915 20.5868 225.032 20.6259C225.168 20.6649 225.305 20.6845 225.442 20.6845C225.969 20.6845 226.37 20.9579 226.643 21.5048C226.956 22.3837 227.17 23.2235 227.288 24.0243C227.405 24.8055 227.473 25.5673 227.493 26.3095C227.512 27.0321 227.512 27.7255 227.493 28.3895C227.493 29.0536 227.512 29.6981 227.551 30.3231C227.61 30.9481 227.717 31.5634 227.874 32.1688C228.049 32.7743 228.342 33.37 228.752 33.9559C228.596 34.2684 228.44 34.4833 228.284 34.6005C228.127 34.6981 227.913 34.747 227.639 34.747C227.405 34.747 227.2 34.6688 227.024 34.5126C226.848 34.3368 226.702 34.1317 226.584 33.8973C226.467 33.6434 226.37 33.3895 226.291 33.1356C226.233 32.8817 226.174 32.6571 226.116 32.4618C226.038 29.6688 225.911 27.5302 225.735 26.0458C225.579 24.5419 225.334 23.7509 225.002 23.6727C224.67 23.5946 224.241 24.2489 223.713 25.6356C223.206 27.0028 222.571 29.1512 221.809 32.0809C221.75 32.1786 221.663 32.2372 221.545 32.2567C221.428 32.2762 221.301 32.286 221.165 32.286C221.047 32.286 220.92 32.286 220.784 32.286C220.666 32.2665 220.549 32.2665 220.432 32.286C219.944 29.4149 219.534 27.3544 219.202 26.1044C218.889 24.8348 218.567 24.3466 218.235 24.6395C217.903 24.9325 217.532 25.9872 217.122 27.8036C216.711 29.6005 216.184 32.1298 215.54 35.3915L214.075 35.743ZM238.596 35.0692C238.499 34.5614 238.411 33.9559 238.333 33.2528C238.274 32.5302 238.206 31.8075 238.127 31.0848C238.049 30.3427 237.952 29.6493 237.834 29.0048C237.737 28.3602 237.581 27.8329 237.366 27.4227C236.37 29.454 235.491 31.0555 234.729 32.2274C233.967 33.3798 233.293 34.2098 232.708 34.7177C232.141 35.2059 231.663 35.4403 231.272 35.4208C230.881 35.4012 230.559 35.2255 230.305 34.8934C230.051 34.5614 229.866 34.1415 229.749 33.6337C229.651 33.1063 229.583 32.618 229.543 32.1688C229.543 31.7391 229.641 31.1337 229.836 30.3524C230.032 29.5712 230.295 28.7216 230.627 27.8036C230.959 26.8661 231.35 25.9188 231.799 24.9618C232.268 24.0048 232.766 23.1356 233.293 22.3544C233.821 21.5731 234.368 20.9286 234.934 20.4208C235.5 19.913 236.067 19.6591 236.633 19.6591C237.473 19.5223 238.088 19.7079 238.479 20.2157C238.889 20.704 238.967 21.5341 238.713 22.7059C238.713 23.995 238.762 25.0985 238.86 26.0165C238.977 26.9345 239.094 27.8134 239.211 28.6532C239.348 29.493 239.465 30.372 239.563 31.2899C239.68 32.2079 239.739 33.3114 239.739 34.6005C239.739 34.8348 239.709 35.0399 239.651 35.2157C239.612 35.372 239.377 35.4501 238.948 35.4501C238.889 35.4501 238.811 35.4012 238.713 35.3036C238.635 35.2059 238.596 35.1278 238.596 35.0692ZM237.014 21.9735C236.799 21.661 236.506 21.6317 236.135 21.8856C235.764 22.1395 235.374 22.5595 234.963 23.1454C234.553 23.7313 234.133 24.4345 233.704 25.2548C233.274 26.0751 232.874 26.9052 232.502 27.745C232.131 28.5848 231.809 29.3856 231.536 30.1473C231.262 30.8895 231.077 31.5048 230.979 31.993C230.979 32.6962 231.086 33.0966 231.301 33.1942C231.516 33.2723 231.78 33.1552 232.092 32.8427C232.405 32.5302 232.756 32.0809 233.147 31.495C233.557 30.9091 233.948 30.2841 234.319 29.62C234.709 28.9559 235.071 28.3114 235.403 27.6864C235.754 27.0614 236.028 26.5536 236.223 26.163C236.399 25.7528 236.536 25.372 236.633 25.0204C236.731 24.6688 236.809 24.3368 236.868 24.0243C236.946 23.6923 236.985 23.3602 236.985 23.0282C237.004 22.6962 237.014 22.3446 237.014 21.9735ZM245.247 36.1239C245.149 35.6747 245.178 35.0985 245.334 34.3954C245.51 33.6727 245.754 32.8915 246.067 32.0516C246.379 31.2118 246.741 30.3427 247.151 29.4442C247.581 28.5458 247.991 27.6962 248.381 26.8954C248.792 26.0751 249.153 25.3329 249.465 24.6688C249.778 24.0048 249.993 23.4774 250.11 23.0868C250.11 23.0673 250.11 23.0477 250.11 23.0282C250.129 22.9891 250.139 22.9501 250.139 22.911C250.139 22.872 250.129 22.8329 250.11 22.7938C250.11 22.7548 250.11 22.7255 250.11 22.7059C249.563 22.9208 248.958 23.1649 248.293 23.4384C247.649 23.6923 246.995 23.9462 246.331 24.2001C245.667 24.4345 245.012 24.6591 244.368 24.8739C243.743 25.0692 243.167 25.2255 242.639 25.3427C242.561 25.4012 242.424 25.3817 242.229 25.2841C242.034 25.1864 241.848 25.0595 241.672 24.9032C241.497 24.7274 241.37 24.5516 241.292 24.3759C241.233 24.1805 241.301 24.0048 241.497 23.8485C242.141 23.8485 242.903 23.7216 243.782 23.4677C244.661 23.1942 245.549 22.8817 246.448 22.5302C247.366 22.1786 248.254 21.8368 249.114 21.5048C249.993 21.1532 250.764 20.9091 251.428 20.7723C252.073 20.7723 252.395 21.0946 252.395 21.7391C252.395 22.4423 252.268 23.1356 252.014 23.8192C251.78 24.4833 251.477 25.1376 251.106 25.7821C250.754 26.4266 250.364 27.0614 249.934 27.6864C249.524 28.3114 249.133 28.9462 248.762 29.5907C248.411 30.2352 248.108 30.8895 247.854 31.5536C247.6 32.2177 247.473 32.9012 247.473 33.6044V33.9559L258.196 31.7587H258.401C258.674 31.7587 258.918 31.8466 259.133 32.0223C259.368 32.1786 259.534 32.3641 259.631 32.579C259.749 32.7743 259.758 32.9794 259.661 33.1942C259.563 33.4091 259.319 33.5653 258.928 33.663C258.85 33.663 258.762 33.6727 258.665 33.6923C258.586 33.7118 258.401 33.7509 258.108 33.8095C257.834 33.8485 257.424 33.9169 256.877 34.0145C256.331 34.0927 255.559 34.2196 254.563 34.3954C253.586 34.5712 252.336 34.8055 250.813 35.0985C249.309 35.372 247.454 35.7137 245.247 36.1239ZM260.276 35.245C260.276 33.9755 260.247 32.6376 260.188 31.2313C260.149 29.8251 260.1 28.4091 260.042 26.9833C260.002 25.538 259.993 24.122 260.012 22.7352C260.032 21.3485 260.12 20.0497 260.276 18.8387C260.315 18.8192 260.403 18.8095 260.54 18.8095C260.696 18.7899 260.803 18.7802 260.862 18.7802C261.135 18.7802 261.35 18.829 261.506 18.9266C261.682 19.0048 261.77 19.1903 261.77 19.4833C261.77 20.6356 261.76 21.8954 261.741 23.2626C261.741 24.6102 261.731 25.9872 261.711 27.3934C261.711 28.7802 261.711 30.1571 261.711 31.5243C261.711 32.8915 261.731 34.1317 261.77 35.245C261.79 35.577 261.721 35.7919 261.565 35.8895C261.428 36.0067 261.252 36.0653 261.038 36.0653C260.803 36.0653 260.608 36.0067 260.452 35.8895C260.295 35.7919 260.237 35.577 260.276 35.245ZM259.631 14.2684C259.631 14.0341 259.709 13.8778 259.866 13.7997C260.022 13.7216 260.198 13.6825 260.393 13.6825C260.784 13.6825 261.028 13.8094 261.125 14.0634C261.223 14.3173 261.272 14.6102 261.272 14.9423C261.155 15.1571 261.008 15.3134 260.833 15.411C260.657 15.4891 260.471 15.5087 260.276 15.4696C260.1 15.411 259.944 15.2841 259.807 15.0887C259.69 14.8934 259.631 14.62 259.631 14.2684ZM265.022 35.4501C264.807 32.8134 264.612 30.1766 264.436 27.5399C264.28 24.8837 264.104 22.1298 263.909 19.2782C263.909 18.8095 264.163 18.5751 264.67 18.5751H264.905C264.963 18.5751 265.032 18.6532 265.11 18.8095C265.188 18.9657 265.266 19.2587 265.344 19.6884C265.442 20.0985 265.54 20.7333 265.637 21.5927C265.754 22.4325 265.891 23.536 266.047 24.9032C266.204 26.2704 266.379 27.9794 266.575 30.0302C266.985 28.702 267.307 27.413 267.542 26.163C267.776 24.913 268.079 23.7802 268.45 22.7645C268.821 21.7294 269.338 20.8212 270.002 20.0399C270.686 19.2587 271.663 18.6825 272.932 18.3114C273.635 18.4286 274.202 18.8583 274.631 19.6005C275.061 20.3231 275.403 21.2216 275.657 22.2958C275.911 23.37 276.086 24.5419 276.184 25.8114C276.282 27.0614 276.34 28.2626 276.36 29.4149C276.379 30.5673 276.389 31.6024 276.389 32.5204C276.389 33.4188 276.409 34.0634 276.448 34.454C276.389 34.6102 276.301 34.747 276.184 34.8641C276.067 34.9813 275.93 35.0692 275.774 35.1278C275.637 35.1669 275.5 35.1766 275.364 35.1571C275.227 35.118 275.1 35.0106 274.983 34.8348C274.983 34.62 274.963 34.1805 274.924 33.5165C274.885 32.8524 274.836 32.0809 274.778 31.202C274.719 30.3036 274.651 29.3563 274.573 28.3602C274.514 27.3446 274.456 26.3973 274.397 25.5184C274.358 24.62 274.319 23.8387 274.28 23.1747C274.241 22.5106 274.211 22.0712 274.192 21.8563C273.782 21.1337 273.372 20.7235 272.961 20.6259C272.571 20.5282 272.17 20.6552 271.76 21.0067C271.37 21.3583 270.989 21.8954 270.618 22.618C270.247 23.3407 269.895 24.161 269.563 25.079C269.231 25.9774 268.918 26.9247 268.625 27.9208C268.333 28.9169 268.079 29.8837 267.864 30.8212C267.649 31.7391 267.463 32.579 267.307 33.3407C267.17 34.0829 267.083 34.6591 267.043 35.0692C266.985 35.2059 266.858 35.3427 266.663 35.4794C266.487 35.5966 266.292 35.6845 266.077 35.743C265.881 35.8016 265.676 35.8212 265.461 35.8016C265.266 35.7626 265.12 35.6454 265.022 35.4501ZM280.315 47.286C282.034 47.1884 283.381 46.7391 284.358 45.9384C285.354 45.1376 286.096 44.1024 286.584 42.8329C287.073 41.5634 287.366 40.1083 287.463 38.4677C287.561 36.8466 287.571 35.1669 287.493 33.4286C287.415 31.6903 287.297 29.952 287.141 28.2137C287.004 26.4559 286.946 24.8251 286.965 23.3212C286.125 25.7821 285.334 27.7743 284.592 29.2977C283.85 30.8016 283.157 31.9442 282.512 32.7255C281.887 33.4872 281.311 33.9559 280.784 34.1317C280.276 34.288 279.827 34.2587 279.436 34.0438C279.045 33.8095 278.723 33.4481 278.469 32.9598C278.235 32.452 278.069 31.9345 277.971 31.4071C278.01 30.5087 278.186 29.5223 278.499 28.4481C278.831 27.3544 279.25 26.2899 279.758 25.2548C280.286 24.2001 280.891 23.2235 281.575 22.3251C282.258 21.4071 282.981 20.6942 283.743 20.1864C284.504 19.6591 285.295 19.3856 286.116 19.3661C286.936 19.327 287.727 19.6395 288.489 20.3036C288.508 20.3231 288.538 20.5868 288.577 21.0946C288.635 21.5829 288.694 22.2372 288.752 23.0575C288.831 23.8583 288.909 24.7665 288.987 25.7821C289.084 26.7782 289.172 27.7938 289.25 28.829C289.329 29.8446 289.397 30.8212 289.456 31.7587C289.514 32.6962 289.573 33.5067 289.631 34.1903C289.709 35.3036 289.661 36.4852 289.485 37.7352C289.329 38.9852 289.075 40.1962 288.723 41.368C288.372 42.5595 287.922 43.6727 287.375 44.7079C286.848 45.743 286.233 46.5927 285.53 47.2567C284.846 47.9208 284.075 48.3407 283.215 48.5165C282.375 48.7118 281.477 48.5653 280.52 48.077C280.461 48.077 280.374 48.0673 280.256 48.0477C280.139 48.0477 280.042 48.0184 279.963 47.9598C279.905 47.9013 279.895 47.8231 279.934 47.7255C279.973 47.6278 280.1 47.4813 280.315 47.286ZM279.495 31.202C279.69 31.8075 279.944 32.12 280.256 32.1395C280.588 32.1395 280.94 31.9345 281.311 31.5243C281.682 31.0946 282.083 30.4989 282.512 29.7372C282.961 28.9755 283.401 28.1454 283.831 27.247C284.26 26.3485 284.68 25.4305 285.09 24.493C285.52 23.536 285.92 22.6473 286.292 21.827C286.292 21.6122 286.243 21.4169 286.145 21.2411C286.047 21.0458 285.833 20.9872 285.5 21.0653C284.954 21.1825 284.417 21.4462 283.889 21.8563C283.381 22.2665 282.903 22.7743 282.454 23.3798C282.024 23.9657 281.624 24.62 281.252 25.3427C280.901 26.0458 280.588 26.7587 280.315 27.4813C280.061 28.1845 279.856 28.8583 279.7 29.5028C279.563 30.1473 279.495 30.7137 279.495 31.202Z" fill="black"/>
</svg>
